<?xml version="1.0" encoding="UTF-8"?>
<!DOCTYPE svg PUBLIC "-//W3C//DTD SVG 1.1//EN" "http://www.w3.org/Graphics/SVG/1.1/DTD/svg11.dtd">
<!-- Creator: CorelDRAW -->
<svg xmlns="http://www.w3.org/2000/svg" xml:space="preserve" width="200mm" height="50mm" version="1.1" style="shape-rendering:geometricPrecision; text-rendering:geometricPrecision; image-rendering:optimizeQuality; fill-rule:evenodd; clip-rule:evenodd"
viewBox="0 0 20000 5000"
 xmlns:xlink="http://www.w3.org/1999/xlink"
 xmlns:xodm="http://www.corel.com/coreldraw/odm/2003">
 <defs>
  <style type="text/css">
   <![CDATA[
    .fil0 {fill:#D6EEF2}
    .fil2 {fill:#96989A;fill-rule:nonzero}
    .fil1 {fill:#373435;fill-rule:nonzero}
   ]]>
  </style>
 </defs>
 <g id="Capa_x0020_1">
  <metadata id="CorelCorpID_0Corel-Layer"/>
  <path class="fil0" d="M2501.26 4342.53c0,0 3545.08,955.84 6809.5,-2208.33 3959.35,-3837.76 6716.33,601.7 7577.6,-1137.13 0,0 -5051.75,-1895.2 -7740.08,1087.69 -3286.02,3646.06 -6414.07,395.1 -6647.02,2257.77z"/>
  <g id="_1928632686176">
   <path class="fil1" d="M8385.86 4283.36l0 -3385.17 1497.62 0 0 3385.17 -1497.62 0zm1976.99 -3371.15l1666.47 0c599.64,0 1063.55,166.32 1390.11,498.2 326.57,331.87 490.63,732.16 490.63,1200.82 0,299.08 -74.62,580.71 -223.36,846.5 -148.52,265.42 -365.99,471.53 -652.66,618.57 -286.95,147.2 -634.01,221.08 -1040.32,221.08l-1630.87 0 0 -3385.17zm1497.62 1295.46l0 794.23 37.85 0c180.21,0 310.72,-30.99 391.46,-93.86 80.26,-62.52 120.38,-166.57 120.38,-309.68 0,-260.46 -151.7,-390.69 -454.29,-390.69l-95.4 0z"/>
   <path class="fil2" d="M7451.35 925.03l435.49 0 0 3326.49 -435.49 0 0 -440.73c-210.73,332.29 -486.21,498.46 -827.25,498.46 -275.45,0 -511.57,-110.19 -708.33,-331.43 -196.74,-220.38 -295.57,-485.35 -295.57,-794.91 0,-303.43 100.57,-563.17 301.69,-781.77 200.26,-217.75 439.87,-327.05 717.95,-327.05 167.03,0 321.81,46.34 466.09,138.15 144.3,92.7 259.73,212.51 345.42,361.17l0 -1648.38zm52.49 2262.26c0,-189.75 -69.98,-355.04 -209.02,-494.08 -139.03,-139.92 -305.18,-209.87 -498.45,-209.87 -199.37,0 -368.15,68.2 -506.3,204.61 -139.04,136.43 -208.13,302.57 -208.13,499.34 0,188.87 70.83,354.15 211.62,494.94 140.78,141.67 305.18,212.51 493.19,212.51 199.4,0 369.04,-68.21 508.07,-205.5 139.04,-137.29 209.02,-304.32 209.02,-501.95z"/>
  </g>
 </g>
</svg>
