<?xml version="1.0" encoding="UTF-8"?>
<!DOCTYPE svg PUBLIC "-//W3C//DTD SVG 1.1//EN" "http://www.w3.org/Graphics/SVG/1.1/DTD/svg11.dtd">
<!-- Creator: CorelDRAW -->
<svg xmlns="http://www.w3.org/2000/svg" xml:space="preserve" width="200mm" height="50mm" version="1.1" style="shape-rendering:geometricPrecision; text-rendering:geometricPrecision; image-rendering:optimizeQuality; fill-rule:evenodd; clip-rule:evenodd"
viewBox="0 0 20000 5000"
 xmlns:xlink="http://www.w3.org/1999/xlink"
 xmlns:xodm="http://www.corel.com/coreldraw/odm/2003">
 <defs>
  <style type="text/css">
   <![CDATA[
    .fil0 {fill:#D6EEF2}
    .fil2 {fill:#96989A;fill-rule:nonzero}
    .fil1 {fill:#373435;fill-rule:nonzero}
   ]]>
  </style>
 </defs>
 <g id="Capa_x0020_1">
  <metadata id="CorelCorpID_0Corel-Layer"/>
  <rect class="fil0" x="821.14" y="930.18" width="18295.36" height="2274.52"/>
  <polygon class="fil1" points="897.3,3925.79 897.3,2602.98 1482.52,2602.98 1482.52,3925.79 "/>
  <polygon id="_1" class="fil1" points="1739.92,3925.79 1739.92,2602.98 2308.58,2602.98 2547.63,2878.72 2787.88,2602.98 3355.64,2602.98 3355.64,3925.79 2769.53,3925.79 2769.53,3263.64 2547.63,3519.27 2325.74,3263.64 2325.74,3925.79 "/>
  <path id="_2" class="fil1" d="M4068.97 3925.79l-585.81 0 459.47 -1322.81 834.64 0 459.48 1322.81 -585.22 0 -76.34 -223.67 -429.89 0 -76.33 223.67zm182.84 -535.81l216.87 0 -108.29 -328.41 -108.58 328.41z"/>
  <path id="_3" class="fil1" d="M6599.2 2759.19l-282.55 397.65c-117.75,-56.51 -226.93,-84.92 -326.93,-84.92 -66.27,0 -119.53,17.16 -159.77,51.78 -40.23,34.32 -60.35,79.88 -60.35,136.39 0,107.4 70.71,161.25 211.54,161.25l0 -207.11 586.11 0 0 713.34c-236.99,13.31 -397.35,19.82 -481.08,19.82 -323.67,0 -548.53,-68.64 -674.57,-206.22 -125.74,-137.58 -188.76,-297.94 -188.76,-481.08 0,-126.03 29.29,-241.42 87.87,-346.75 58.58,-105.03 143.2,-186.69 253.85,-244.38 110.95,-57.7 241.72,-86.69 393.21,-86.69 106.21,0 216.57,15.38 330.18,46.45 113.91,30.77 217.76,74.26 311.25,130.47z"/>
  <polygon id="_4" class="fil1" points="7876.75,3593.83 7876.75,3925.79 6778.79,3925.79 6778.79,2602.98 7876.75,2602.98 7876.75,2934.94 7363.72,2934.94 7363.72,3098.85 7720.82,3098.85 7720.82,3430.81 7363.72,3430.81 7363.72,3593.83 "/>
  <polygon id="_5" class="fil1" points="9368.5,3936.15 8924.7,3936.15 8640.38,3519.27 8640.38,3925.79 8055.45,3925.79 8055.45,2602.98 8473.8,2602.98 8782.39,3050.33 8782.39,2602.98 9368.5,2602.98 "/>
  <path id="_6" class="fil1" d="M10218.82 2602.98l651.2 0c234.32,0 415.69,64.79 543.21,194.68 127.81,129.59 191.72,286.1 191.72,469.24 0,116.87 -29,226.93 -87.28,330.78 -57.99,103.84 -142.91,184.32 -255.04,241.72 -112.13,57.69 -247.64,86.39 -406.52,86.39l-637.29 0 0 -1322.81zm585.22 506.22l0 310.36 14.79 0c70.42,0 121.31,-12.13 152.97,-36.68 31.36,-24.56 47.04,-65.09 47.04,-121.01 0,-101.78 -59.17,-152.67 -177.52,-152.67l-37.28 0z"/>
  <polygon id="_7" class="fil1" points="11791.35,3925.79 11791.35,2602.98 12376.57,2602.98 12376.57,3925.79 "/>
  <path id="_8" class="fil1" d="M13974.83 2759.19l-282.55 397.65c-117.75,-56.51 -226.93,-84.92 -326.93,-84.92 -66.27,0 -119.53,17.16 -159.77,51.78 -40.23,34.32 -60.35,79.88 -60.35,136.39 0,107.4 70.71,161.25 211.54,161.25l0 -207.11 586.11 0 0 713.34c-236.99,13.31 -397.35,19.82 -481.08,19.82 -323.67,0 -548.53,-68.64 -674.57,-206.22 -125.74,-137.58 -188.76,-297.94 -188.76,-481.08 0,-126.03 29.29,-241.42 87.87,-346.75 58.58,-105.03 143.2,-186.69 253.85,-244.38 110.95,-57.7 241.72,-86.69 393.21,-86.69 106.21,0 216.57,15.38 330.18,46.45 113.91,30.77 217.76,74.26 311.25,130.47z"/>
  <polygon id="_9" class="fil1" points="14157.68,3925.79 14157.68,2602.98 14742.9,2602.98 14742.9,3925.79 "/>
  <polygon id="_10" class="fil1" points="14906.51,3189.09 14906.51,2602.98 16081.99,2602.98 16081.99,3189.09 15787.3,3189.09 15787.3,3925.79 15201.19,3925.79 15201.19,3189.09 "/>
  <path id="_11" class="fil1" d="M16559.51 3925.79l-585.81 0 459.47 -1322.81 834.64 0 459.48 1322.81 -585.22 0 -76.34 -223.67 -429.89 0 -76.33 223.67zm182.84 -535.81l216.87 0 -108.29 -328.41 -108.58 328.41z"/>
  <polygon id="_12" class="fil1" points="17857.17,3925.79 17857.17,2602.98 18442.98,2602.98 18442.98,3593.83 18956.31,3593.83 18956.31,3925.79 "/>
  <path class="fil2" d="M1539.6 1153.26l147.18 0 0 1124.23 -147.18 0 0 -148.95c-71.22,112.3 -164.32,168.46 -279.58,168.46 -93.09,0 -172.89,-37.24 -239.39,-112.01 -66.49,-74.48 -99.89,-164.03 -99.89,-268.65 0,-102.55 33.99,-190.33 101.96,-264.21 67.68,-73.59 148.66,-110.53 242.64,-110.53 56.45,0 108.76,15.66 157.52,46.69 48.77,31.33 87.78,71.82 116.74,122.06l0 -557.09zm17.74 764.56c0,-64.13 -23.65,-119.99 -70.64,-166.98 -46.99,-47.29 -103.14,-70.93 -168.46,-70.93 -67.38,0 -124.42,23.05 -171.11,69.15 -46.99,46.11 -70.34,102.26 -70.34,168.76 0,63.83 23.94,119.69 71.52,167.27 47.58,47.88 103.14,71.82 166.68,71.82 67.39,0 124.72,-23.05 171.71,-69.45 46.99,-46.4 70.64,-102.85 70.64,-169.64z"/>
  <path id="_1_0" class="fil2" d="M3371.53 1328.81c0,-31.33 11.53,-58.22 34.58,-80.98 23.35,-22.76 50.54,-34.28 82.46,-34.28 31.32,0 58.22,11.52 80.97,34.28 22.76,22.76 34.29,49.65 34.29,80.98 0,31.62 -11.53,58.81 -34.29,81.57 -22.75,22.46 -49.65,33.69 -80.97,33.69 -31.92,0 -59.11,-11.23 -82.46,-33.69 -23.05,-22.76 -34.58,-49.95 -34.58,-81.57zm42.56 234.06l150.73 0 0 714.62 -150.73 0 0 -714.62z"/>
  <path id="_2_1" class="fil2" d="M5702.34 1646.51l-100.48 88.37c-26.01,-18.62 -48.47,-32.81 -67.68,-42.26 -19.21,-9.76 -41.67,-14.49 -67.68,-14.49 -61.47,0 -92.21,22.47 -92.21,67.68 0,32.51 38.72,63.84 116.45,94.28 77.72,30.44 133.58,63.84 167.57,100.19 33.98,36.65 51.12,80.39 51.12,132.11 0,59.99 -24.52,112.6 -73.58,157.22 -49.06,44.92 -106.69,67.39 -172.9,67.39 -101.07,0 -183.53,-46.7 -248.25,-139.79l118.51 -57.04c41.67,40.19 84.82,60.29 130.04,60.29 31.03,0 58.22,-8.57 81.57,-25.72 23.35,-16.84 35.17,-36.64 35.17,-59.4 0,-39.9 -41.08,-75.95 -122.95,-108.17 -82.16,-31.92 -138.9,-64.42 -170.23,-96.93 -31.62,-32.81 -47.28,-73 -47.28,-120.88 0,-59.4 22.46,-109.05 67.08,-148.36 44.93,-39.6 101.08,-59.4 168.76,-59.4 67.38,0 143.33,34.87 226.97,104.91z"/>
  <path id="_3_2" class="fil2" d="M8057.68 1947.67l-610 0c13.3,73.88 43.45,127.67 90.44,161.66 47.28,33.98 98.41,51.13 153.97,51.13 85.42,0 157.23,-35.47 214.86,-106.4l109.94 83.05c-82.45,106.69 -192.98,159.89 -331.59,159.89 -106.4,0 -195.06,-36.36 -266.88,-109.35 -71.52,-72.71 -107.28,-163.14 -107.28,-271.31 0,-101.37 36.35,-188.85 108.76,-263.33 72.41,-74.18 160.78,-111.41 265.4,-111.41 102.84,0 190.92,37.53 264.21,112.89 73.29,75.36 109.35,173.19 108.17,293.18zm-594.04 -120.58l437.99 0c-48.76,-98.12 -120.58,-147.18 -215.45,-147.18 -103.73,0 -177.91,49.06 -222.54,147.18z"/>
  <path id="_4_3" class="fil2" d="M9685.98 2277.49l0 -714.62 150.73 0 0 118.52c42.85,-47.88 81.86,-83.05 116.74,-105.81 34.87,-22.75 73.88,-33.98 116.73,-33.98 64.14,0 119.11,21.27 164.62,64.13 45.51,42.85 68.27,94.27 68.27,154.57l0 517.19 -150.73 0 0 -473.46c0,-39.01 -12.41,-70.92 -37.53,-96.64 -24.82,-25.41 -56.45,-38.12 -94.87,-38.12 -49.94,0 -92.8,21.28 -129.15,63.84 -36.05,42.55 -54.08,93.98 -54.08,154.27l0 390.11 -150.73 0zm140.09 -867.11l-115.26 0 0 -11.23c0,-54.09 16.84,-98.72 50.24,-134.18 33.4,-35.46 75.66,-53.2 127.08,-53.2 26.6,0 66.5,12.12 119.4,36.35 53.2,24.24 88.96,36.36 107.28,36.36 20.39,0 34.88,-5.92 43.74,-17.44 8.87,-11.53 15.07,-29.85 18.62,-55.27l113.49 0c-2.37,63.54 -18.33,112.31 -47.88,146 -29.85,33.99 -70.04,50.83 -120.88,50.83 -38.71,0 -81.56,-13.59 -128.85,-40.78 -46.7,-26.01 -80.39,-39.01 -101.37,-39.01 -19.51,0 -35.47,6.79 -47.58,20.68 -12.12,13.6 -18.03,31.33 -18.03,53.2l0 7.69z"/>
  <path id="_5_4" class="fil2" d="M11933.15 1917.23c0,-98.12 38.42,-185.01 115.56,-261.26 77.13,-76.25 165.79,-114.37 265.69,-114.37 102.84,0 192.69,37.53 269.53,112.6 76.84,75.06 115.26,162.54 115.26,263.03 0,100.78 -37.83,189.44 -113.19,266.28 -75.36,76.84 -162.25,115.26 -261.26,115.26 -105.51,0 -197.42,-37.83 -275.15,-113.78 -77.72,-75.96 -116.44,-165.21 -116.44,-267.76zm620.63 0.29c0,-61.17 -23.05,-114.08 -69.45,-159.29 -46.1,-45.22 -101.07,-67.68 -164.61,-67.68 -65.32,0 -121.47,22.75 -168.76,68.56 -46.99,45.81 -70.63,100.19 -70.63,163.73 0,60.59 23.94,113.49 71.52,159 47.58,45.22 103.73,67.98 167.87,67.98 62.36,0 117.03,-23.35 163.73,-69.75 46.99,-46.7 70.33,-100.78 70.33,-162.55z"/>
  <path id="_6_5" class="fil2" d="M16411.94 1153.26l147.18 0 0 1124.23 -147.18 0 0 -148.95c-71.22,112.3 -164.32,168.46 -279.58,168.46 -93.09,0 -172.89,-37.24 -239.39,-112.01 -66.49,-74.48 -99.89,-164.03 -99.89,-268.65 0,-102.55 33.99,-190.33 101.96,-264.21 67.68,-73.59 148.66,-110.53 242.64,-110.53 56.45,0 108.76,15.66 157.52,46.69 48.77,31.33 87.78,71.82 116.74,122.06l0 -557.09zm17.74 764.56c0,-64.13 -23.65,-119.99 -70.64,-166.98 -46.99,-47.29 -103.14,-70.93 -168.46,-70.93 -67.38,0 -124.42,23.05 -171.11,69.15 -46.99,46.11 -70.34,102.26 -70.34,168.76 0,63.83 23.94,119.69 71.52,167.27 47.58,47.88 103.14,71.82 166.68,71.82 67.39,0 124.72,-23.05 171.71,-69.45 46.99,-46.4 70.64,-102.85 70.64,-169.64z"/>
  <path id="_7_6" class="fil2" d="M18985.09 1947.67l-610 0c13.3,73.88 43.45,127.67 90.44,161.66 47.28,33.98 98.41,51.13 153.97,51.13 85.42,0 157.23,-35.47 214.86,-106.4l109.94 83.05c-82.45,106.69 -192.98,159.89 -331.59,159.89 -106.4,0 -195.06,-36.36 -266.88,-109.35 -71.52,-72.71 -107.28,-163.14 -107.28,-271.31 0,-101.37 36.35,-188.85 108.76,-263.33 72.41,-74.18 160.78,-111.41 265.4,-111.41 102.84,0 190.92,37.53 264.21,112.89 73.29,75.36 109.35,173.19 108.17,293.18zm-594.04 -120.58l437.99 0c-48.76,-98.12 -120.58,-147.18 -215.45,-147.18 -103.73,0 -177.91,49.06 -222.54,147.18z"/>
 </g>
</svg>
